Cover Image:
 
http://img830.imageshack.us/img830/8214/kfp2bbnrgcover.png

General Details

Complete name : Kung.Fu.Panda.2.2011.HDTVRip.x264-Biz
Format : MPEG-4
Format profile : Base Media / Version 2
Codec ID : mp42
File size : 398 MiB
Duration : 1h 25mn
Overall bit rate : 650 Kbps

Video

ID : 1
Format : AVC
Format/Info : Advanced Video Codec
Format profile : Main@L3.0
Format settings, CABAC : Yes
Format settings, ReFrames : 4 frames
Codec ID : avc1
Codec ID/Info : Advanced Video Coding
Duration : 1h 25mn
Bit rate mode : Variable
Bit rate : 489 Kbps
Width : 720 pixels
Height : 304 pixels
Display aspect ratio : 2.35:1
Frame rate mode : Variable
Frame rate : 29.970 fps
Minimum frame rate : 29.960 fps
Maximum frame rate : 29.970 fps
Color space : YUV
Chroma subsampling : 4:2:0
Bit depth : 8 bits
Scan type : Progressive
Bits/(Pixel*Frame) : 0.075
Stream size : 299 MiB (75%)
Writing library : x264 core 112

Audio

ID : 2
Format : AAC
Format/Info : Advanced Audio Codec
Format profile : LC
Codec ID : 40
Duration : 1h 24mn
Bit rate mode : Variable
Bit rate : 160 Kbps
Maximum bit rate : 281 Kbps
Channel(s) : 2 channels
Channel positions : Front: L R
Sampling rate : 48.0 KHz
Compression mode : Lossy
Stream size : 96.3 MiB (24%)

IMDB Link: 
http://www.imdb.com/title/tt1302011/ 

screenshots:
 
http://img52.imageshack.us/img52/21/vlcsnap2011091113h56m32.png 
http://img716.imageshack.us/img716/3731/vlcsnap2011091113h59m37.png 
http://img822.imageshack.us/img822/1979/vlcsnap2011091115h29m51.png 
http://img809.imageshack.us/img809/8643/vlcsnap2011091117h05m02.png 
http://img23.imageshack.us/img23/3791/vlcsnap2011091117h05m10.png 
http://img7.imageshack.us/img7/3829/vlcsnap2011091117h11m58.png 
http://img217.imageshack.us/img217/7600/vlcsnap2011091117h12m05.png 
http://img841.imageshack.us/img841/9241/vlcsnap2011091117h12m15.png

